<svg xmlns="http://www.w3.org/2000/svg" width="269" height="35" viewBox="0 0 269 35">
    <g fill="none" fill-rule="evenodd">
        <g transform="translate(140.348)">
            <rect width="58.478" height="35" fill="#0072CE" rx="4"/>
            <path fill="#FFF" d="M49.36 20.222h-2.066c-.206 0-.343.007-.459.085-.12.076-.166.19-.166.34 0 .177.101.298.248.35.12.042.248.054.437.054l.615.017c.62.015 1.033.12 1.286.38.046.035.073.076.105.116v-1.342zm0 3.11c-.275.4-.812.603-1.538.603h-2.19v-1.011h2.18c.217 0 .368-.029.46-.117a.414.414 0 0 0 .134-.308.387.387 0 0 0-.139-.312c-.082-.072-.202-.104-.4-.104-1.064-.036-2.392.032-2.392-1.46 0-.685.437-1.405 1.627-1.405h2.258v-.939h-2.098c-.633 0-1.093.15-1.419.385v-.385H42.74c-.496 0-1.079.122-1.354.385v-.385h-5.542v.385c-.44-.316-1.185-.385-1.528-.385H30.66v.385c-.348-.336-1.124-.385-1.597-.385h-4.091l-.936 1.008-.877-1.008h-6.11v6.583h5.995l.965-1.023.908 1.023 3.696.003v-1.548h.363c.49.007 1.07-.012 1.58-.232v1.777h3.048v-1.716h.147c.188 0 .206.008.206.194v1.522h9.26c.588 0 1.203-.15 1.543-.422v.422h2.938c.61 0 1.208-.085 1.662-.304v-1.226zm-4.522-1.885c.22.227.34.514.34 1 0 1.015-.639 1.488-1.782 1.488h-2.208v-1.011h2.2c.214 0 .367-.029.462-.117a.417.417 0 0 0 .134-.308.404.404 0 0 0-.138-.312c-.087-.072-.206-.104-.404-.104-1.06-.036-2.387.032-2.387-1.46 0-.685.432-1.405 1.62-1.405h2.273v1.004h-2.08c-.206 0-.34.008-.454.085-.124.076-.17.19-.17.34 0 .178.105.299.248.35.12.042.248.054.441.054l.61.017c.616.015 1.038.12 1.295.38zm-10.23-.291c-.15.09-.338.097-.559.097h-1.377v-1.06h1.396c.202 0 .404.005.54.086.148.076.236.222.236.424a.508.508 0 0 1-.235.453zm.685.587c.253.093.46.259.556.396.16.23.183.445.188.861v.935h-1.138v-.59c0-.284.027-.704-.184-.923-.165-.17-.418-.21-.831-.21h-1.212v1.723h-1.139v-4.717h2.617c.574 0 .992.025 1.364.222.358.215.583.51.583 1.048 0 .753-.505 1.137-.804 1.255zm1.433-2.525h3.783v.975h-2.654v.858h2.59v.963h-2.59v.938l2.654.005v.978h-3.783v-4.717zm-7.649 2.177h-1.465v-1.202h1.478c.41 0 .694.166.694.579 0 .408-.271.623-.707.623zm-2.594 2.111l-1.74-1.921 1.74-1.861v3.782zm-4.495-.554h-2.787v-.938h2.489v-.963H19.2v-.858h2.842l1.24 1.375-1.295 1.384zm9.013-2.18c0 1.31-.983 1.581-1.974 1.581h-1.415v1.582H25.41l-1.396-1.561-1.45 1.561h-4.491v-4.717h4.56l1.394 1.546 1.442-1.546h3.622c.9 0 1.91.247 1.91 1.554zM12.663 13.78l-.776-1.88-.771 1.88h1.547zm17.093-.748c-.155.094-.34.097-.56.097h-1.378v-1.047h1.396c.198 0 .404.008.538.085.147.068.238.215.238.417 0 .206-.087.372-.234.448zm9.825.749l-.785-1.88-.78 1.88h1.565zm-18.313 2.035h-1.163l-.004-3.694-1.644 3.694h-.995l-1.648-3.697v3.697h-2.306l-.435-1.052h-2.36l-.44 1.052H9.04l2.03-4.717h1.684l1.928 4.466V11.1h1.85l1.484 3.2 1.363-3.2h1.887v4.717zm4.631 0h-3.787V11.1H25.9v.983h-2.653v.85h2.59v.967h-2.59v.942h2.653v.975zm5.34-3.446c0 .752-.505 1.14-.799 1.257.248.094.46.26.56.397.16.235.188.444.188.865v.927h-1.143l-.004-.595c0-.284.027-.692-.18-.919-.165-.166-.417-.202-.825-.202h-1.217v1.716h-1.134V11.1h2.607c.58 0 1.007.016 1.373.226.359.211.574.519.574 1.045zm1.814 3.446h-1.157V11.1h1.157v4.717zm13.42 0h-1.607l-2.15-3.54v3.54h-2.308l-.44-1.052h-2.356l-.428 1.052h-1.326c-.551 0-1.249-.121-1.644-.522-.398-.4-.606-.943-.606-1.8 0-.7.124-1.34.611-1.845.367-.376.94-.55 1.722-.55h1.097v1.011h-1.074c-.414 0-.647.061-.872.28-.194.198-.326.573-.326 1.068 0 .505.1.87.311 1.108.175.186.492.243.79.243h.51l1.597-3.71h1.699l1.92 4.462V11.1h1.725l1.993 3.284V11.1h1.161v4.716zm-37.445.926h1.937l.437-1.047h.977l.436 1.047h3.81v-.8l.341.804h1.978l.34-.816v.812h9.472l-.005-1.72h.183c.129.005.166.017.166.228v1.492H34v-.4c.395.21 1.01.4 1.818.4h2.06l.442-1.047h.977l.432 1.047h3.97v-.995l.602.995h3.183v-6.578h-3.15v.777l-.44-.777H40.66v.777l-.405-.777H35.89c-.73 0-1.373.102-1.891.384v-.384h-3.013v.384c-.33-.291-.78-.384-1.28-.384H18.701l-.739 1.7-.758-1.7h-3.466v.777l-.381-.777H10.4l-1.373 3.128v3.45z"/>
        </g>
        <g transform="translate(70.174)">
            <rect width="58.478" height="35" fill="#006" rx="4"/>
            <path fill="#C00" d="M32.823 17.783c0 6.287-5.109 11.384-11.412 11.384C15.108 29.167 10 24.07 10 17.783S15.109 6.4 21.41 6.4c6.303 0 11.412 5.097 11.412 11.384"/>
            <path fill="#F90" d="M36.733 6.4a11.388 11.388 0 0 0-8.814 4.151h2.306c.315.382.605.785.87 1.206h-4.046c-.242.387-.462.789-.657 1.205h5.36c.183.39.345.792.483 1.206h-6.327c-.131.392-.243.794-.331 1.204h6.99a11.44 11.44 0 0 1-.332 6.027h-6.327c.14.413.3.816.483 1.206h5.361c-.196.416-.415.818-.658 1.206h-4.045c.264.42.555.822.87 1.204h2.305c-.354.43-.74.833-1.153 1.206a11.386 11.386 0 0 0 7.662 2.946c6.302 0 11.411-5.097 11.411-11.384 0-6.286-5.109-11.384-11.411-11.384"/>
            <path fill="#006" d="M18.746 19.03a2.136 2.136 0 0 0-.276-.02c-.703 0-1.058.24-1.058.715 0 .293.174.478.444.478.505 0 .869-.479.89-1.174zm.901 2.092h-1.026l.023-.487c-.313.385-.73.568-1.298.568-.672 0-1.132-.523-1.132-1.282 0-1.144.8-1.811 2.175-1.811.14 0 .32.013.505.036.038-.155.048-.22.048-.304 0-.311-.215-.428-.794-.428a4.14 4.14 0 0 0-1.311.212l.171-1.056c.618-.181 1.025-.249 1.483-.249 1.064 0 1.628.476 1.626 1.377.003.242-.038.539-.1.93-.107.68-.338 2.139-.37 2.494zM15.696 21.122h-1.24l.71-4.439-1.585 4.439h-.844l-.104-4.414-.746 4.414h-1.16l.969-5.774h1.782l.107 3.232 1.087-3.232h1.982l-.958 5.774M38.263 19.03a2.126 2.126 0 0 0-.275-.02c-.703 0-1.058.24-1.058.715 0 .293.173.478.444.478.504 0 .868-.479.89-1.174zm.902 2.092H38.14l.023-.487c-.313.385-.73.568-1.298.568-.672 0-1.132-.523-1.132-1.282 0-1.144.8-1.811 2.175-1.811.14 0 .32.013.505.036a1.15 1.15 0 0 0 .048-.304c0-.311-.216-.428-.794-.428a4.149 4.149 0 0 0-1.312.212l.172-1.056c.617-.181 1.025-.249 1.482-.249 1.065 0 1.628.476 1.627 1.377.002.242-.038.539-.1.93-.107.68-.339 2.139-.37 2.494zM25.153 21.05c-.339.107-.603.153-.89.153-.633 0-.979-.363-.979-1.032-.009-.207.091-.753.17-1.251.072-.439.537-3.205.537-3.205h1.232l-.144.711h.744l-.168 1.129h-.746c-.143.893-.347 2.005-.35 2.153 0 .242.13.347.425.347.14 0 .25-.014.334-.044l-.165 1.04M28.93 21.013c-.424.129-.832.191-1.264.19-1.38-.002-2.098-.72-2.098-2.095 0-1.605.914-2.787 2.156-2.787 1.015 0 1.664.662 1.664 1.7 0 .344-.045.68-.152 1.154h-2.453c-.083.681.354.965 1.071.965.44 0 .838-.09 1.28-.295l-.205 1.168zm-.693-2.784c.007-.098.13-.839-.573-.839-.392 0-.673.299-.787.839h1.36zM20.39 17.91c0 .594.289 1.004.944 1.312.501.235.58.305.58.518 0 .292-.222.425-.712.425-.37 0-.714-.058-1.11-.186l-.17 1.085c.28.061.532.118 1.289.139 1.307 0 1.91-.496 1.91-1.57 0-.645-.252-1.023-.873-1.308-.519-.238-.579-.291-.579-.51 0-.254.206-.384.606-.384.244 0 .576.026.89.07l.177-1.089a8.385 8.385 0 0 0-1.09-.09c-1.386 0-1.866.721-1.862 1.589M34.955 16.445c.344 0 .665.09 1.107.312l.203-1.253c-.182-.072-.821-.49-1.362-.49-.829 0-1.53.412-2.023 1.088-.72-.237-1.015.243-1.377.721l-.322.075c.024-.157.046-.314.04-.472h-1.139c-.155 1.454-.43 2.926-.646 4.38l-.056.316h1.239c.207-1.341.32-2.2.389-2.78l.467-.259c.07-.259.287-.346.725-.335a5.248 5.248 0 0 0-.088.962c0 1.537.832 2.493 2.165 2.493.344 0 .639-.045 1.096-.17l.217-1.315c-.41.201-.747.296-1.052.296-.72 0-1.156-.53-1.156-1.407 0-1.271.647-2.162 1.573-2.162M45.444 15.348l-.275 1.668c-.338-.445-.702-.767-1.183-.767-.625 0-1.194.473-1.567 1.17-.518-.108-1.055-.29-1.055-.29v.004c.041-.39.059-.626.055-.707H40.28c-.155 1.454-.43 2.926-.646 4.38l-.057.316h1.24c.167-1.084.295-1.985.39-2.698.423-.382.635-.715 1.063-.693-.19.457-.3.984-.3 1.524 0 1.173.594 1.948 1.495 1.948.454 0 .803-.156 1.143-.518l-.059.437h1.172l.944-5.774h-1.222zm-1.55 4.69c-.42 0-.634-.313-.634-.927 0-.923.399-1.577.96-1.577.426 0 .657.323.657.92 0 .93-.406 1.583-.982 1.583z"/>
            <path fill="#FFF" d="M16.052 20.78h-1.239l.71-4.44-1.585 4.44h-.844l-.104-4.414-.746 4.413h-1.16l.969-5.774h1.781l.05 3.575 1.202-3.575h1.924l-.958 5.774M19.103 18.688a2.065 2.065 0 0 0-.277-.02c-.702 0-1.057.24-1.057.715 0 .292.173.479.444.479.505 0 .868-.48.89-1.174zm.9 2.091h-1.026l.024-.486c-.313.384-.731.568-1.299.568-.671 0-1.131-.524-1.131-1.283 0-1.144.8-1.81 2.175-1.81.14 0 .32.013.505.036.038-.155.048-.221.048-.305 0-.31-.215-.426-.794-.426a4.125 4.125 0 0 0-1.312.21l.172-1.056c.617-.18 1.025-.249 1.483-.249 1.064 0 1.627.477 1.626 1.378.002.24-.038.54-.1.93-.108.68-.339 2.139-.37 2.493zM36.621 15.16l-.203 1.254c-.442-.222-.763-.312-1.106-.312-.925 0-1.574.892-1.574 2.164 0 .876.436 1.406 1.156 1.406.305 0 .642-.094 1.052-.296l-.217 1.315c-.456.124-.752.17-1.095.17-1.334 0-2.165-.957-2.165-2.493 0-2.064 1.149-3.507 2.79-3.507.542 0 1.18.229 1.362.3M38.62 18.688a2.05 2.05 0 0 0-.276-.02c-.702 0-1.057.24-1.057.715 0 .292.173.479.443.479.505 0 .869-.48.89-1.174zm.901 2.091h-1.026l.023-.486c-.313.384-.73.568-1.298.568-.672 0-1.131-.524-1.131-1.283 0-1.144.8-1.81 2.174-1.81.14 0 .32.013.505.036.038-.155.048-.221.048-.305 0-.31-.215-.426-.794-.426a4.127 4.127 0 0 0-1.311.21l.172-1.056c.617-.18 1.024-.249 1.482-.249 1.064 0 1.628.477 1.626 1.378.003.24-.037.54-.1.93-.107.68-.338 2.139-.37 2.493zM25.51 20.708a2.836 2.836 0 0 1-.89.153c-.633 0-.98-.364-.98-1.031-.008-.209.092-.754.17-1.252.072-.44.538-3.205.538-3.205h1.232l-.145.71h.633l-.169 1.129h-.634c-.143.894-.347 2.005-.35 2.153 0 .243.13.348.425.348.141 0 .25-.014.334-.044l-.164 1.039M29.286 20.67c-.423.13-.832.191-1.264.19-1.379 0-2.097-.719-2.097-2.094 0-1.606.914-2.788 2.155-2.788 1.016 0 1.664.662 1.664 1.7 0 .345-.045.68-.151 1.155H27.14c-.083.681.354.966 1.07.966.44 0 .839-.091 1.281-.297l-.205 1.169zm-.692-2.784c.007-.098.13-.838-.573-.838-.392 0-.673.299-.787.838h1.36zM20.747 17.568c0 .595.289 1.003.944 1.311.501.236.579.305.579.519 0 .292-.221.424-.712.424-.37 0-.713-.057-1.11-.184l-.17 1.083c.281.062.533.118 1.29.14 1.307 0 1.91-.497 1.91-1.57 0-.645-.252-1.024-.873-1.308-.52-.238-.58-.291-.58-.51 0-.254.207-.385.607-.385.243 0 .575.027.89.071l.177-1.089a8.454 8.454 0 0 0-1.09-.092c-1.387 0-1.866.723-1.862 1.59M46.079 20.78h-1.172l.058-.438c-.34.362-.688.519-1.142.519-.9 0-1.496-.774-1.496-1.949 0-1.562.923-2.878 2.016-2.878.48 0 .844.195 1.183.64l.275-1.669h1.221l-.943 5.774zm-1.828-1.086c.577 0 .982-.652.982-1.582 0-.597-.23-.92-.656-.92-.562 0-.96.654-.96 1.577 0 .615.213.925.634.925zM40.637 16.084c-.154 1.453-.43 2.925-.646 4.38l-.056.315h1.24c.442-2.871.55-3.432 1.244-3.362.111-.587.317-1.102.47-1.362-.518-.108-.808.185-1.188.74.03-.24.085-.473.075-.711h-1.139M30.439 16.084c-.156 1.453-.432 2.925-.647 4.38l-.056.315h1.24c.443-2.871.55-3.432 1.244-3.362.11-.587.317-1.102.47-1.362-.518-.108-.808.185-1.187.74.03-.24.085-.473.074-.711h-1.138"/>
        </g>
        <g>
            <rect width="58.478" height="35" fill="#26337A" rx="4"/>
            <path fill="#FFFFFE" d="M24.263 23.069l1.798-11.127h2.874L27.137 23.07h-2.874M37.562 12.215a7.12 7.12 0 0 0-2.575-.466c-2.842 0-4.842 1.51-4.859 3.672-.018 1.599 1.428 2.49 2.517 3.023 1.12.544 1.497.893 1.492 1.38-.007.745-.894 1.087-1.72 1.087-1.15 0-1.762-.168-2.707-.584l-.37-.177-.402 2.49c.67.31 1.913.58 3.202.594 3.02 0 4.982-1.492 5.005-3.8.01-1.269-.755-2.23-2.414-3.024-1.004-.516-1.62-.858-1.614-1.38.001-.462.521-.957 1.647-.957.94-.015 1.62.201 2.15.427l.259.128.39-2.413M41.39 19.124c.238-.64 1.144-3.11 1.144-3.11-.016.03.237-.644.382-1.061l.194.96s.552 2.655.665 3.211H41.39zm3.545-7.17h-2.221c-.689 0-1.205.197-1.506.922l-4.269 10.197h3.019s.493-1.372.604-1.673l3.682.006c.086.388.35 1.667.35 1.667h2.667l-2.326-11.12zM21.851 11.952l-2.813 7.585-.301-1.542c-.524-1.776-2.156-3.702-3.981-4.667l2.573 9.731 3.042-.002 4.526-11.105h-3.046"/>
            <path fill="#EC982D" d="M16.427 11.944h-4.635l-.038.23c3.606.922 5.993 3.147 6.983 5.821l-1.007-5.112c-.174-.705-.679-.914-1.303-.939"/>
        </g>
        <g transform="matrix(1 0 0 -1 210.522 35)">
            <rect width="58.478" height="35" fill="#00457C" rx="4"/>
            <path fill="#FFF" d="M45.862 22.17l-1.18-7.485a.239.239 0 0 1 .237-.276h1.187c.196 0 .364.143.394.337l1.163 7.35a.24.24 0 0 1-.237.276H46.1a.239.239 0 0 1-.237-.201M31.072 19.72H29.69a.399.399 0 0 1-.33-.174l-1.908-2.803-.809 2.693a.4.4 0 0 1-.382.285H24.9a.24.24 0 0 1-.227-.316l1.523-4.46-1.432-2.016a.239.239 0 0 1 .196-.377h1.381a.4.4 0 0 1 .328.171l4.6 6.623a.239.239 0 0 1-.197.375M42.323 17.049c-.133-.784-.757-1.311-1.554-1.311-.399 0-.718.128-.924.37-.204.24-.28.583-.215.964a1.538 1.538 0 0 0 1.542 1.321c.39 0 .708-.129.917-.374.21-.246.294-.59.234-.97m1.917 2.672h-1.376a.24.24 0 0 1-.237-.202l-.06-.384-.096.14c-.298.43-.962.575-1.626.575-1.52 0-2.819-1.15-3.071-2.761-.132-.805.055-1.573.512-2.11.42-.492 1.019-.697 1.733-.697 1.226 0 1.905.785 1.905.785l-.061-.381a.24.24 0 0 1 .236-.277h1.24c.196 0 .363.143.394.336l.744 4.7a.24.24 0 0 1-.237.276M21.825 17.049c-.133-.784-.757-1.311-1.553-1.311-.399 0-.719.128-.924.37-.203.24-.28.583-.216.964a1.538 1.538 0 0 0 1.543 1.321c.39 0 .708-.129.917-.374.21-.246.294-.59.233-.97m1.918 2.672h-1.376a.24.24 0 0 1-.237-.202l-.06-.384-.096.14c-.298.43-.963.575-1.626.575-1.52 0-2.819-1.15-3.072-2.761-.131-.805.056-1.573.513-2.11.42-.492 1.019-.697 1.733-.697 1.226 0 1.905.785 1.905.785l-.061-.381a.24.24 0 0 1 .236-.277h1.24c.196 0 .363.143.394.336l.744 4.7a.24.24 0 0 1-.237.276M15.485 19.688c-.157-1.03-.945-1.03-1.707-1.03h-.433l.304 1.922a.239.239 0 0 0 .236.201h.2c.518 0 1.008 0 1.26-.294.152-.176.197-.438.14-.8m-.331 2.686H12.28a.4.4 0 0 1-.395-.337l-1.162-7.35a.239.239 0 0 1 .237-.277h1.372a.4.4 0 0 1 .394.336l.314 1.984c.03.193.198.336.394.336h.91c1.893 0 2.985.914 3.27 2.725.13.792.006 1.414-.366 1.85-.408.479-1.133.733-2.094.733M35.982 19.688c-.157-1.03-.944-1.03-1.707-1.03h-.433l.304 1.922a.239.239 0 0 0 .237.201h.198c.52 0 1.009 0 1.262-.294.15-.176.196-.438.14-.8m-.332 2.686h-2.874a.4.4 0 0 1-.395-.337l-1.162-7.35a.24.24 0 0 1 .237-.277h1.475c.137 0 .254.1.276.235l.33 2.085c.03.193.197.336.394.336h.909c1.893 0 2.985.914 3.27 2.725.13.792.006 1.414-.366 1.85-.408.479-1.133.733-2.094.733"/>
        </g>
    </g>
</svg>
