<svg xmlns="http://www.w3.org/2000/svg" width="81" height="79" viewBox="0 0 81 79">
    <defs>
        <linearGradient id="a" x1="-.001%" y1="50.01%" y2="50.01%">
            <stop offset="0%" stop-color="#77A802"/>
            <stop offset="100%" stop-color="#109005"/>
        </linearGradient>
        <linearGradient id="b" x1="-.003%" x2="100.002%" y1="50.002%" y2="50.002%">
            <stop offset="0%" stop-color="#77A802"/>
            <stop offset="100%" stop-color="#109005"/>
        </linearGradient>
    </defs>
    <g fill="none" fill-rule="evenodd">
        <path fill="#231F20" d="M33.955 45.818l-2.459-2.459 2.023-2.022 2.46 2.459-2.024 2.022zM6.117 61.441h3.478V46.716H6.117V61.44zm54.138-51.237l3.19 3.19a2.852 2.852 0 0 0-.811-2.38 2.86 2.86 0 0 0-2.38-.81zM37.736 24.161L49.49 35.912l19.776-11.777L49.514 4.383 37.736 24.161zm8.406 19.55l2.365 2.365a3.389 3.389 0 0 0-.873-3.284l-.289-.287-1.203 1.205zm-23.44-4.048l11.283 11.284 12.809-12.81-2.58-2.578-6.403 6.404-2.459-2.46 6.403-6.403-6.243-6.245-12.81 12.808zm-.92 6.877l5.327 5.329 1.44-1.44-5.33-5.327-1.437 1.438zm19.092 2.438l10.11 10.11c.521-.835.778-1.75.778-2.705a5.11 5.11 0 0 0-1.506-3.638l-6.574-6.575-2.808 2.808zm10.214 14.247a2.123 2.123 0 0 1-1.517-.63L38.413 51.438l-2.993 2.995c-.757.762-2.105.767-2.875-.005l-1.537-1.54-3.9 3.9L16.864 46.54l3.898-3.9-1.543-1.54a2.023 2.023 0 0 1-.593-1.44c0-.543.214-1.052.598-1.435l14.854-14.854c.058-.057.115-.11.176-.158L47.495.978c.34-.55.876-.89 1.488-.961A1.982 1.982 0 0 1 50.63.58l6.917 6.917c2.407-1.336 5.508-.981 7.546 1.059 2.04 2.04 2.393 5.139 1.059 7.547l6.908 6.908c.438.439.647 1.044.574 1.658a1.999 1.999 0 0 1-.946 1.474L50.435 39.397c-.05.061-.104.122-.161.18l-.468.467.287.287c2.266 2.268 2.614 5.74 1.043 8.376l1.58 1.58c3.363 3.36 3.363 8.832 0 12.194-.526.523-1.06.744-1.628.744zm-26.343 6.118H28.1v-3.478h-3.355v3.478zm6.957 0h3.354v-3.478h-3.354v3.478zm6.956 0h3.355v-3.478h-3.355v3.478zm6.957 0h3.354v-3.478h-3.354v3.478zm6.956 0h3.355v-3.478H52.57v3.478zM5.615 32.88c-1.18 0-2.136.957-2.136 2.136v38.128c0 1.18.956 2.136 2.136 2.136h6.083v-42.4H5.615zm69.441 45.878H5.615A5.62 5.62 0 0 1 0 73.143V35.015A5.62 5.62 0 0 1 5.615 29.4H21.9v3.478h-6.724v42.4H65.64V34.62h3.478v40.66h5.94a2.136 2.136 0 0 0 2.133-2.136V35.015c0-1.18-.956-2.136-2.134-2.136H69.5v-3.478h5.556a5.62 5.62 0 0 1 5.613 5.614v38.128a5.62 5.62 0 0 1-5.613 5.614z"/>
        <path fill="url(#a)" d="M75.056 72.05H5.614a3.875 3.875 0 0 1-3.873-3.876v5.219a3.873 3.873 0 0 0 3.873 3.873h69.442a3.874 3.874 0 0 0 3.874-3.873v-5.22a3.876 3.876 0 0 1-3.874 3.877" style="mix-blend-mode:multiply"/>
        <path fill="url(#b)" d="M37.362 22.01L17.859 41.515a.381.381 0 0 0 0 .537l5.438 5.438 20.04-20.041-5.436-5.439a.387.387 0 0 0-.27-.111.387.387 0 0 0-.27.111" style="mix-blend-mode:multiply"/>
    </g>
</svg>
