<svg xmlns="http://www.w3.org/2000/svg" width="80" height="80" viewBox="0 0 80 80">
    <defs>
        <linearGradient id="a" x1="0%" y1="50.002%" y2="50.002%">
            <stop offset="0%" stop-color="#77A802"/>
            <stop offset="100%" stop-color="#109005"/>
        </linearGradient>
    </defs>
    <g fill="none" fill-rule="evenodd">
        <path fill="#231F20" d="M38.247 12.402h3.424V8.923h-3.424v3.479zm22.322 9.316l-2.423-2.417 2.457-2.463 2.423 2.417-2.457 2.463zm-41.423.02l-2.476-2.443 2.403-2.438 2.477 2.444-2.404 2.436zm48.216 19.924l-.007-3.424 3.478-.005.007 3.422-3.478.007zm-58.475.035l-.02-3.424 3.48-.021.018 3.424-3.478.021zm30.97 20.765c-12.44 0-22.56-10.12-22.56-22.56 0-12.438 10.12-22.558 22.56-22.558s22.56 10.12 22.56 22.558c0 2.042-.274 4.067-.812 6.018l-3.353-.924c.456-1.65.687-3.363.687-5.094 0-10.52-8.56-19.08-19.082-19.08-10.521 0-19.081 8.56-19.081 19.08 0 10.522 8.56 19.082 19.081 19.082 1.818 0 3.616-.254 5.343-.756l.972 3.339a22.653 22.653 0 0 1-6.315.895zm-20.654.588l-2.43-2.408 2.446-2.473 2.433 2.408-2.449 2.473zm41.373 7.553L41.739 51.77l-7.066 2.387c-.774.209-1.478.02-1.958-.457l-8.732-8.73.314-.924 1.103-8.29a2.01 2.01 0 0 1 1.47-1.223 2.013 2.013 0 0 1 1.827.55l5.073 5.266 4.484-1.613 1.63-4.526-5.084-5.277a1.995 1.995 0 0 1-.527-1.803 2.012 2.012 0 0 1 1.22-1.47l.497-.12 7.44-.666.841-.343.95.865 7.889 7.887c.488.478.681 1.201.495 1.876l-2.254 6.569 19.05 19.05-2.458 2.46-20.586-20.585 2.608-7.597-6.678-6.678-3.86.346 4.46 4.63-2.915 8.099-8.144 2.932-4.482-4.654-.523 4.159 6.662 6.664 8.186-2.772 20.364 20.363-2.46 2.46zm-22.41.287l-.015-3.478 3.425-.014.014 3.478-3.425.014zm7.681 8.903h-11.97l-2.21-10.15a30.601 30.601 0 0 1-7.154-2.986l-9.148 5.487-8.46-8.49 6.1-8.58a30.516 30.516 0 0 1-2.915-7.069L0 45.895.024 33.93l10.098-2.239a30.567 30.567 0 0 1 2.995-7.161l-5.178-8.781 8.477-8.435 8.274 5.729a30.584 30.584 0 0 1 7.013-2.896L33.87 0h11.97l2.178 10.144a30.608 30.608 0 0 1 7.037 2.91l9.481-7.178 8.524 8.529-6.398 10.223a30.557 30.557 0 0 1 2.956 7.13l10.197 2.155-.009 11.976-10.226 2.196c-.435 1.383-1.087 3-1.553 4.153l-3.256-1.228c.551-1.365 1.425-3.525 1.725-4.805l.253-1.071 9.58-2.058.006-6.344-9.576-2.024-.252-1.075a27.14 27.14 0 0 0-3.362-8.113l-.57-.92 6.067-9.696-4.424-4.424-8.946 6.774-1.016-.63a27.106 27.106 0 0 0-8.11-3.367l-1.072-.252-2.044-9.527h-6.348l-2.036 9.527-1.071.252c-2.844.67-5.55 1.79-8.047 3.329l-.967.596-7.746-5.361-4.508 4.487 4.866 8.252-.558.895a27.108 27.108 0 0 0-3.383 8.105l-.252 1.059-9.484 2.1-.014 6.35 9.47 1.98.252 1.083a27.12 27.12 0 0 0 3.352 8.117l.605.98-5.722 8.047 4.468 4.486 8.62-5.17.903.563a27.249 27.249 0 0 0 8.106 3.379l1.066.252 2.075 9.529h6.348l2.005-9.512 1.079-.25c1-.235 2.476-.877 3.662-1.395.43-.186.833-.362 1.191-.51l1.327 3.214c-.339.141-.721.307-1.128.486-1.016.441-2.132.928-3.17 1.274l-2.145 10.17z"/>
        <path fill="url(#a)" d="M15.51 39.975c0 13.447 10.9 24.347 24.347 24.347 13.447 0 24.348-10.9 24.348-24.347 0-13.448-10.9-24.35-24.348-24.35-13.447 0-24.347 10.902-24.347 24.35" style="mix-blend-mode:multiply"/>
    </g>
</svg>
