<svg xmlns="http://www.w3.org/2000/svg" width="80" height="80" viewBox="0 0 80 80">
    <defs>
        <linearGradient id="a" x1="0%" x2="99.999%" y1="50.002%" y2="50.002%">
            <stop offset="0%" stop-color="#77A802"/>
            <stop offset="100%" stop-color="#109005"/>
        </linearGradient>
        <linearGradient id="b" x1="0%" x2="100.003%" y1="49.998%" y2="49.998%">
            <stop offset="0%" stop-color="#77A802"/>
            <stop offset="100%" stop-color="#109005"/>
        </linearGradient>
    </defs>
    <g fill="none" fill-rule="evenodd">
        <path fill="#231F20" d="M17.16 11.033h3.537V7.768H17.16v3.265zm6.53 0h3.538V7.768H23.69v3.265zm6.53 0h3.538V7.768H30.22v3.265zm30.288 21.089H17.064V19.536h3.266v9.32h40.178v3.266zM37.96 48.995h3.265v-2.449h-3.265v2.45zm7.53 1.325l-3.07-1.117.838-2.302 3.07 1.116-.838 2.303zm-11.83.024l-.845-2.299 3.065-1.126.844 2.298-3.065 1.127zM13.674 13.209h51.837V6.135H13.675v7.074zm55.102 37.688h-3.265V16.475H13.675v34.422H10.41V4.801c0-1.066.867-1.931 1.933-1.931h54.504c1.065 0 1.93.865 1.93 1.931v46.096zm-38.66 2.165l-1.578-1.87 2.494-2.107 1.58 1.871-2.495 2.106zm24.899 2.178a16.693 16.693 0 0 0-3.587-5.32 16.684 16.684 0 0 0-5.321-3.587c-4.124-1.742-8.898-1.742-13.027 0a16.702 16.702 0 0 0-5.321 3.587 16.688 16.688 0 0 0-3.585 5.32l-3.008-1.273a19.935 19.935 0 0 1 4.284-6.356 19.965 19.965 0 0 1 6.358-4.286c4.937-2.086 10.635-2.086 15.57 0a19.929 19.929 0 0 1 6.358 4.286 19.94 19.94 0 0 1 4.286 6.356l-3.007 1.273zm-27.297 1.587l-2.124-1.218 1.625-2.832 2.124 1.218-1.625 2.832zm8.479 3.293h6.795a3.779 3.779 0 0 0-3.4-2.137 3.774 3.774 0 0 0-3.395 2.137zm10.24 0h16.279c-.841-12.02-10.89-21.546-23.124-21.546-12.23 0-22.28 9.525-23.121 21.546H32.75c.738-3.094 3.527-5.402 6.842-5.402 1.205 0 2.342.305 3.333.84l5.21-6.447 2.54 2.053-5.31 6.571a7.013 7.013 0 0 1 1.072 2.385zm24.6 3.266H9.006V60.12H13.2c.847-13.823 12.36-24.811 26.393-24.811 14.035 0 25.55 10.988 26.396 24.811h5.05v3.266zM3.843 70.35l.374 2.282a.214.214 0 0 0 .212.178h70.632a.211.211 0 0 0 .21-.18l.375-2.28H45.308l-1.298 1.724H33.669l-1.204-1.724H3.843zm71.218 5.725H4.43A3.468 3.468 0 0 1 .996 73.16L0 67.085h3.296V24.813c0-1.143.93-2.074 2.075-2.074h3.635v3.265H6.562v41.081H34.17l1.203 1.724h7.007l1.3-1.724h29.249v-41.08h-3.543v-3.266h4.733c1.145 0 2.075.93 2.075 2.074v42.272h3.297l-.996 6.075a3.468 3.468 0 0 1-3.434 2.916z"/>
        <path fill="url(#a)" d="M6.578 0c-.2 0-.364.035-.364.078v14.764h67.352V.078c0-.043-.164-.078-.366-.078H6.578z" style="mix-blend-mode:multiply"/>
        <path fill="url(#b)" d="M21.984 61.795c0 9.953 8.067 18.02 18.02 18.02 9.95 0 18.017-8.067 18.017-18.02 0-9.95-8.067-18.018-18.018-18.018-9.952 0-18.02 8.067-18.02 18.018" style="mix-blend-mode:multiply"/>
    </g>
</svg>
