<?xml version="1.0" encoding="UTF-8" standalone="no"?>
<!-- Generator: Adobe Illustrator 18.1.1, SVG Export Plug-In . SVG Version: 6.00 Build 0)  -->

<svg
   xmlns:osb="http://www.openswatchbook.org/uri/2009/osb"
   xmlns:dc="http://purl.org/dc/elements/1.1/"
   xmlns:cc="http://creativecommons.org/ns#"
   xmlns:rdf="http://www.w3.org/1999/02/22-rdf-syntax-ns#"
   xmlns:svg="http://www.w3.org/2000/svg"
   xmlns="http://www.w3.org/2000/svg"
   xmlns:xlink="http://www.w3.org/1999/xlink"
   xmlns:sodipodi="http://sodipodi.sourceforge.net/DTD/sodipodi-0.dtd"
   xmlns:inkscape="http://www.inkscape.org/namespaces/inkscape"
   version="1.1"
   id="Capa_1"
   x="0px"
   y="0px"
   viewBox="0 0 334.791 334.791"
   style="enable-background:new 0 0 334.791 334.791;"
   xml:space="preserve"
   sodipodi:docname="clean-floor-white.svg"
   inkscape:version="0.92.3 (2405546, 2018-03-11)"><metadata
   id="metadata923"><rdf:RDF><cc:Work
       rdf:about=""><dc:format>image/svg+xml</dc:format><dc:type
         rdf:resource="http://purl.org/dc/dcmitype/StillImage" /><dc:title></dc:title></cc:Work></rdf:RDF></metadata><defs
   id="defs921"><linearGradient
     id="linearGradient942"
     osb:paint="solid"><stop
       style="stop-color:#ffffff;stop-opacity:1;"
       offset="0"
       id="stop940" /></linearGradient><linearGradient
     inkscape:collect="always"
     xlink:href="#linearGradient942"
     id="linearGradient944"
     x1="208.80138"
     y1="158.41314"
     x2="315.24338"
     y2="158.41314"
     gradientUnits="userSpaceOnUse" /></defs><sodipodi:namedview
   pagecolor="#ffffff"
   bordercolor="#666666"
   borderopacity="1"
   objecttolerance="10"
   gridtolerance="10"
   guidetolerance="10"
   inkscape:pageopacity="0"
   inkscape:pageshadow="2"
   inkscape:window-width="1920"
   inkscape:window-height="1017"
   id="namedview919"
   showgrid="false"
   inkscape:zoom="2.5388975"
   inkscape:cx="167.39549"
   inkscape:cy="167.39549"
   inkscape:window-x="-8"
   inkscape:window-y="-8"
   inkscape:window-maximized="1"
   inkscape:current-layer="g884" />
<g
   id="g886">
	<g
   id="g884">
		
		
		
		
		
		<path
   style="fill:#ffffff;fill-opacity:1"
   d="m 226.10238,116.14364 c -67.308,0 -68.211,-68.374001 -68.211,-68.374001 0,66.493001 -68.373999,68.374001 -68.373999,68.374001 55.951999,0.087 66.160999,42.827 67.987999,60.678 0.413,4.019 0.402,6.788 0.386,7.511 0.022,-0.723 0.136,-3.492 0.718,-7.511 2.562,-17.851 14.272,-60.591 67.651,-60.678 -0.049,0 -0.103,0 -0.158,0 z"
   id="path880"
   inkscape:connector-curvature="0" />
		<path
   style="fill:url(#linearGradient944);fill-opacity:1"
   d="m 315.11838,158.48664 c -52.395,0 -53.096,-53.221 -53.096,-53.221 0,51.758 -53.221,53.221 -53.221,53.221 21.702,0.033 34.565,8.316 42.185,18.335 11.112,14.615 11.074,32.928 11.041,34.739 0.054,-1.811 0.941,-20.119 12.238,-34.739 7.734,-10.008 20.293,-18.302 40.978,-18.335 -0.043,0 -0.081,0 -0.125,0 z"
   id="path882"
   inkscape:connector-curvature="0" />
	<path
   inkscape:connector-curvature="0"
   style="fill:#ffffff;fill-opacity:1"
   d="m 135.02131,205.67456 c -52.394987,0 -53.095987,-53.221 -53.095987,-53.221 0,51.758 -53.221001,53.221 -53.221001,53.221 21.702001,0.033 34.565001,8.316 42.185001,18.335 11.112,14.615 11.074,32.928 11.041,34.739 0.054,-1.811 0.941,-20.119 12.238001,-34.739 7.733986,-10.008 20.292986,-18.302 40.977986,-18.335 -0.043,0 -0.081,0 -0.125,0 z"
   id="path882-7" /></g>
</g>
<g
   id="g888">
</g>
<g
   id="g890">
</g>
<g
   id="g892">
</g>
<g
   id="g894">
</g>
<g
   id="g896">
</g>
<g
   id="g898">
</g>
<g
   id="g900">
</g>
<g
   id="g902">
</g>
<g
   id="g904">
</g>
<g
   id="g906">
</g>
<g
   id="g908">
</g>
<g
   id="g910">
</g>
<g
   id="g912">
</g>
<g
   id="g914">
</g>
<g
   id="g916">
</g>
</svg>