<?xml version="1.0" encoding="iso-8859-1"?>
<!-- Generator: Adobe Illustrator 16.0.0, SVG Export Plug-In . SVG Version: 6.00 Build 0)  -->
<!DOCTYPE svg PUBLIC "-//W3C//DTD SVG 1.1//EN" "http://www.w3.org/Graphics/SVG/1.1/DTD/svg11.dtd">
<svg version="1.1" id="Capa_1" xmlns="http://www.w3.org/2000/svg" xmlns:xlink="http://www.w3.org/1999/xlink" x="0px" y="0px"
	 width="403.138px" height="403.139px" viewBox="0 0 403.138 403.139" style="enable-background:new 0 0 403.138 403.139;"
	 xml:space="preserve">
<g>
	<g>
		<path d="M288.755,80.613c-15.557-21.254-33.328-41.498-50.037-56.998C213.259,0,204.462,0,201.57,0c-2.83,0-11.445,0-36.785,23.18
			c-16.783,15.354-34.574,35.369-50.094,56.359c-30.799,41.652-67.512,106.414-67.512,178.406
			c0,82.775,66.373,145.193,154.391,145.193c88.016,0,154.389-62.418,154.389-145.193
			C355.958,187.272,319.414,122.502,288.755,80.613z M201.57,383.139c-76.615,0-134.391-53.82-134.391-125.193
			c0-65.007,33.191-124.53,61.035-163.017c31.533-43.584,63.688-74.704,73.379-74.701c9.066,0.002,40.234,29.209,73.508,75.631
			c27.765,38.732,60.857,98.295,60.857,162.087C335.958,329.318,278.183,383.139,201.57,383.139z"/>
		<path d="M296.98,227.723c-5.522,0-10,4.477-10,10c0,54.662-44.315,95.881-103.086,95.881c-5.521,0-10,4.479-10,10
			c0,5.523,4.479,10,10,10c70.17,0,123.086-49.817,123.086-115.881C306.98,232.199,302.501,227.723,296.98,227.723z"/>
	</g>
</g>
<g>
</g>
<g>
</g>
<g>
</g>
<g>
</g>
<g>
</g>
<g>
</g>
<g>
</g>
<g>
</g>
<g>
</g>
<g>
</g>
<g>
</g>
<g>
</g>
<g>
</g>
<g>
</g>
<g>
</g>
</svg>
