<?xml version="1.0" encoding="UTF-8" standalone="no"?>
<!-- Generator: Adobe Illustrator 16.0.0, SVG Export Plug-In . SVG Version: 6.00 Build 0)  -->

<svg
   xmlns:osb="http://www.openswatchbook.org/uri/2009/osb"
   xmlns:dc="http://purl.org/dc/elements/1.1/"
   xmlns:cc="http://creativecommons.org/ns#"
   xmlns:rdf="http://www.w3.org/1999/02/22-rdf-syntax-ns#"
   xmlns:svg="http://www.w3.org/2000/svg"
   xmlns="http://www.w3.org/2000/svg"
   xmlns:xlink="http://www.w3.org/1999/xlink"
   xmlns:sodipodi="http://sodipodi.sourceforge.net/DTD/sodipodi-0.dtd"
   xmlns:inkscape="http://www.inkscape.org/namespaces/inkscape"
   version="1.1"
   id="Capa_1"
   x="0px"
   y="0px"
   width="403.138px"
   height="403.139px"
   viewBox="0 0 403.138 403.139"
   style="enable-background:new 0 0 403.138 403.139;"
   xml:space="preserve"
   sodipodi:docname="drop-of-toothpaste-white.svg"
   inkscape:version="0.92.3 (2405546, 2018-03-11)"><metadata
   id="metadata3856"><rdf:RDF><cc:Work
       rdf:about=""><dc:format>image/svg+xml</dc:format><dc:type
         rdf:resource="http://purl.org/dc/dcmitype/StillImage" /><dc:title></dc:title></cc:Work></rdf:RDF></metadata><defs
   id="defs3854"><linearGradient
     id="linearGradient4671"
     osb:paint="solid"><stop
       style="stop-color:#ffffff;stop-opacity:1;"
       offset="0"
       id="stop4669" /></linearGradient><linearGradient
     id="linearGradient4665"
     osb:paint="solid"><stop
       style="stop-color:#ffffff;stop-opacity:1;"
       offset="0"
       id="stop4663" /></linearGradient><linearGradient
     inkscape:collect="always"
     xlink:href="#linearGradient4665"
     id="linearGradient4667"
     x1="47.179"
     y1="201.569"
     x2="355.959"
     y2="201.569"
     gradientUnits="userSpaceOnUse" /><linearGradient
     inkscape:collect="always"
     xlink:href="#linearGradient4671"
     id="linearGradient4673"
     x1="173.894"
     y1="290.6635"
     x2="306.98"
     y2="290.6635"
     gradientUnits="userSpaceOnUse" /></defs><sodipodi:namedview
   pagecolor="#ffffff"
   bordercolor="#666666"
   borderopacity="1"
   objecttolerance="10"
   gridtolerance="10"
   guidetolerance="10"
   inkscape:pageopacity="0"
   inkscape:pageshadow="2"
   inkscape:window-width="1920"
   inkscape:window-height="1017"
   id="namedview3852"
   showgrid="false"
   inkscape:zoom="2.1084539"
   inkscape:cx="124.49831"
   inkscape:cy="201.5695"
   inkscape:window-x="-8"
   inkscape:window-y="-8"
   inkscape:window-maximized="1"
   inkscape:current-layer="g3817" />
<g
   id="g3819">
	<g
   id="g3817">
		<path
   d="M288.755,80.613c-15.557-21.254-33.328-41.498-50.037-56.998C213.259,0,204.462,0,201.57,0c-2.83,0-11.445,0-36.785,23.18    c-16.783,15.354-34.574,35.369-50.094,56.359c-30.799,41.652-67.512,106.414-67.512,178.406    c0,82.775,66.373,145.193,154.391,145.193c88.016,0,154.389-62.418,154.389-145.193    C355.958,187.272,319.414,122.502,288.755,80.613z M201.57,383.139c-76.615,0-134.391-53.82-134.391-125.193    c0-65.007,33.191-124.53,61.035-163.017c31.533-43.584,63.688-74.704,73.379-74.701c9.066,0.002,40.234,29.209,73.508,75.631    c27.765,38.732,60.857,98.295,60.857,162.087C335.958,329.318,278.183,383.139,201.57,383.139z"
   id="path3813"
   style="fill-opacity:1;fill:url(#linearGradient4667)" />
		<path
   d="M296.98,227.723c-5.522,0-10,4.477-10,10c0,54.662-44.315,95.881-103.086,95.881c-5.521,0-10,4.479-10,10    c0,5.523,4.479,10,10,10c70.17,0,123.086-49.817,123.086-115.881C306.98,232.199,302.501,227.723,296.98,227.723z"
   id="path3815"
   style="fill-opacity:1;fill:url(#linearGradient4673)" />
	</g>
</g>
<g
   id="g3821">
</g>
<g
   id="g3823">
</g>
<g
   id="g3825">
</g>
<g
   id="g3827">
</g>
<g
   id="g3829">
</g>
<g
   id="g3831">
</g>
<g
   id="g3833">
</g>
<g
   id="g3835">
</g>
<g
   id="g3837">
</g>
<g
   id="g3839">
</g>
<g
   id="g3841">
</g>
<g
   id="g3843">
</g>
<g
   id="g3845">
</g>
<g
   id="g3847">
</g>
<g
   id="g3849">
</g>
</svg>