<?xml version="1.0" encoding="UTF-8" standalone="no"?>
<!-- Generator: Adobe Illustrator 19.0.0, SVG Export Plug-In . SVG Version: 6.00 Build 0)  -->

<svg
   xmlns:osb="http://www.openswatchbook.org/uri/2009/osb"
   xmlns:dc="http://purl.org/dc/elements/1.1/"
   xmlns:cc="http://creativecommons.org/ns#"
   xmlns:rdf="http://www.w3.org/1999/02/22-rdf-syntax-ns#"
   xmlns:svg="http://www.w3.org/2000/svg"
   xmlns="http://www.w3.org/2000/svg"
   xmlns:xlink="http://www.w3.org/1999/xlink"
   xmlns:sodipodi="http://sodipodi.sourceforge.net/DTD/sodipodi-0.dtd"
   xmlns:inkscape="http://www.inkscape.org/namespaces/inkscape"
   version="1.1"
   id="Capa_1"
   x="0px"
   y="0px"
   viewBox="0 0 539.077 539.077"
   style="enable-background:new 0 0 539.077 539.077;"
   xml:space="preserve"
   sodipodi:docname="home-white.svg"
   inkscape:version="0.92.3 (2405546, 2018-03-11)"><metadata
   id="metadata981"><rdf:RDF><cc:Work
       rdf:about=""><dc:format>image/svg+xml</dc:format><dc:type
         rdf:resource="http://purl.org/dc/dcmitype/StillImage" /><dc:title></dc:title></cc:Work></rdf:RDF></metadata><defs
   id="defs979"><linearGradient
     id="linearGradient2189"
     osb:paint="solid"><stop
       style="stop-color:#ffffff;stop-opacity:1;"
       offset="0"
       id="stop2187" /></linearGradient><linearGradient
     inkscape:collect="always"
     xlink:href="#linearGradient2189"
     id="linearGradient2191"
     x1="-0.00025"
     y1="269.53837"
     x2="539.07725"
     y2="269.53837"
     gradientUnits="userSpaceOnUse" /></defs><sodipodi:namedview
   pagecolor="#ffffff"
   bordercolor="#666666"
   borderopacity="1"
   objecttolerance="10"
   gridtolerance="10"
   guidetolerance="10"
   inkscape:pageopacity="0"
   inkscape:pageshadow="2"
   inkscape:window-width="1920"
   inkscape:window-height="1017"
   id="namedview977"
   showgrid="false"
   inkscape:zoom="0.4377853"
   inkscape:cx="269.53851"
   inkscape:cy="269.53851"
   inkscape:window-x="-8"
   inkscape:window-y="-8"
   inkscape:window-maximized="1"
   inkscape:current-layer="Capa_1" />
<g
   id="g944"
   style="fill-opacity:1;fill:url(#linearGradient2191)">
	<g
   id="g942"
   style="fill-opacity:1;fill:url(#linearGradient2191)">
		<path
   d="M460.462,527.846H325.692c-6.208,0-11.231-5.023-11.231-11.231v-146h-89.846v146c0,6.208-5.023,11.231-11.231,11.231    H78.615c-6.208,0-11.231-5.023-11.231-11.231V292c0-6.208,5.023-11.231,11.231-11.231c6.208,0,11.231,5.023,11.231,11.231v213.385    h112.308v-146c0-6.208,5.023-11.231,11.231-11.231h112.308c6.208,0,11.231,5.023,11.231,11.231v146h112.308V303.231    c0-6.208,5.023-11.231,11.231-11.231c6.208,0,11.231,5.023,11.231,11.231v213.385    C471.692,522.823,466.669,527.846,460.462,527.846z M527.846,292c-2.873,0-5.747-1.097-7.94-3.29L269.538,38.343L19.171,288.71    c-4.387,4.387-11.494,4.387-15.881,0c-4.387-4.387-4.387-11.494,0-15.881L261.598,14.521c4.387-4.387,11.494-4.387,15.881,0    l258.308,258.308c4.387,4.387,4.387,11.494,0,15.881C533.593,290.903,530.72,292,527.846,292z M438,134.769    c-6.208,0-11.231-5.023-11.231-11.231V56.154h-67.385c-6.208,0-11.231-5.023-11.231-11.231s5.023-11.231,11.231-11.231H438    c6.208,0,11.231,5.023,11.231,11.231v78.615C449.231,129.746,444.208,134.769,438,134.769z"
   id="path940"
   style="fill-opacity:1;fill:url(#linearGradient2191)" />
	</g>
</g>
<g
   id="g946">
</g>
<g
   id="g948">
</g>
<g
   id="g950">
</g>
<g
   id="g952">
</g>
<g
   id="g954">
</g>
<g
   id="g956">
</g>
<g
   id="g958">
</g>
<g
   id="g960">
</g>
<g
   id="g962">
</g>
<g
   id="g964">
</g>
<g
   id="g966">
</g>
<g
   id="g968">
</g>
<g
   id="g970">
</g>
<g
   id="g972">
</g>
<g
   id="g974">
</g>
</svg>