<?xml version="1.0" encoding="UTF-8" standalone="no"?>
<!-- Generator: Adobe Illustrator 17.1.0, SVG Export Plug-In . SVG Version: 6.00 Build 0)  -->

<svg
   xmlns:osb="http://www.openswatchbook.org/uri/2009/osb"
   xmlns:dc="http://purl.org/dc/elements/1.1/"
   xmlns:cc="http://creativecommons.org/ns#"
   xmlns:rdf="http://www.w3.org/1999/02/22-rdf-syntax-ns#"
   xmlns:svg="http://www.w3.org/2000/svg"
   xmlns="http://www.w3.org/2000/svg"
   xmlns:xlink="http://www.w3.org/1999/xlink"
   xmlns:sodipodi="http://sodipodi.sourceforge.net/DTD/sodipodi-0.dtd"
   xmlns:inkscape="http://www.inkscape.org/namespaces/inkscape"
   version="1.1"
   id="Capa_1"
   x="0px"
   y="0px"
   viewBox="0 0 465 465"
   style="enable-background:new 0 0 465 465;"
   xml:space="preserve"
   sodipodi:docname="samsung-galaxy-white.svg"
   inkscape:version="0.92.3 (2405546, 2018-03-11)"><metadata
   id="metadata1618"><rdf:RDF><cc:Work
       rdf:about=""><dc:format>image/svg+xml</dc:format><dc:type
         rdf:resource="http://purl.org/dc/dcmitype/StillImage" /><dc:title></dc:title></cc:Work></rdf:RDF></metadata><defs
   id="defs1616"><linearGradient
     id="linearGradient2183"
     osb:paint="solid"><stop
       style="stop-color:#ffffff;stop-opacity:1;"
       offset="0"
       id="stop2181" /></linearGradient><linearGradient
     id="linearGradient2177"
     osb:paint="solid"><stop
       style="stop-color:#ffffff;stop-opacity:1;"
       offset="0"
       id="stop2175" /></linearGradient><linearGradient
     id="linearGradient2171"
     osb:paint="solid"><stop
       style="stop-color:#ffffff;stop-opacity:1;"
       offset="0"
       id="stop2169" /></linearGradient><linearGradient
     id="linearGradient2165"
     osb:paint="solid"><stop
       style="stop-color:#ffffff;stop-opacity:1;"
       offset="0"
       id="stop2163" /></linearGradient><linearGradient
     inkscape:collect="always"
     xlink:href="#linearGradient2165"
     id="linearGradient2167"
     x1="78.611"
     y1="232.4995"
     x2="386.389"
     y2="232.4995"
     gradientUnits="userSpaceOnUse" /><linearGradient
     inkscape:collect="always"
     xlink:href="#linearGradient2171"
     id="linearGradient2173"
     x1="195"
     y1="51.5"
     x2="270"
     y2="51.5"
     gradientUnits="userSpaceOnUse" /><linearGradient
     inkscape:collect="always"
     xlink:href="#linearGradient2177"
     id="linearGradient2179"
     x1="285"
     y1="51.5"
     x2="301"
     y2="51.5"
     gradientUnits="userSpaceOnUse" /><linearGradient
     inkscape:collect="always"
     xlink:href="#linearGradient2183"
     id="linearGradient2185"
     x1="192.333"
     y1="413.4995"
     x2="272.667"
     y2="413.4995"
     gradientUnits="userSpaceOnUse" /></defs><sodipodi:namedview
   pagecolor="#ffffff"
   bordercolor="#666666"
   borderopacity="1"
   objecttolerance="10"
   gridtolerance="10"
   guidetolerance="10"
   inkscape:pageopacity="0"
   inkscape:pageshadow="2"
   inkscape:window-width="1920"
   inkscape:window-height="1017"
   id="namedview1614"
   showgrid="false"
   inkscape:zoom="0.50752688"
   inkscape:cx="232.5"
   inkscape:cy="232.5"
   inkscape:window-x="-8"
   inkscape:window-y="-8"
   inkscape:window-maximized="1"
   inkscape:current-layer="g1581" />
<g
   id="g1581">
	<path
   d="M351.111,0H113.889C94.437,0,78.611,15.825,78.611,35.277v394.445c0,19.452,15.826,35.277,35.278,35.277h237.222   c19.452,0,35.278-15.825,35.278-35.277V35.277C386.389,15.825,370.563,0,351.111,0z M93.611,103h277.778v259H93.611V103z    M113.889,15h237.222c11.181,0,20.278,9.097,20.278,20.277V88H93.611V35.277C93.611,24.097,102.708,15,113.889,15z M351.111,450   H113.889c-11.181,0-20.278-9.097-20.278-20.277V377h277.778v52.723C371.389,440.903,362.292,450,351.111,450z"
   id="path1573"
   style="fill-opacity:1;fill:url(#linearGradient2167)" />
	<path
   d="M256.682,392h-48.364c-8.814,0-15.985,7.171-15.985,15.984v11.031c0,8.813,7.171,15.984,15.985,15.984h48.364   c8.814,0,15.985-7.171,15.985-15.984v-11.031C272.667,399.171,265.496,392,256.682,392z M257.667,419.016   c0,0.543-0.442,0.984-0.985,0.984h-48.364c-0.543,0-0.985-0.441-0.985-0.984v-11.031c0-0.543,0.442-0.984,0.985-0.984h48.364   c0.543,0,0.985,0.441,0.985,0.984V419.016z"
   id="path1575"
   style="fill-opacity:1;fill:url(#linearGradient2185)" />
	<path
   d="M202.5,59h60c4.142,0,7.5-3.357,7.5-7.5s-3.358-7.5-7.5-7.5h-60c-4.142,0-7.5,3.357-7.5,7.5S198.358,59,202.5,59z"
   id="path1577"
   style="fill-opacity:1;fill:url(#linearGradient2173)" />
	<path
   d="M293,59.5c4.411,0,8-3.589,8-8s-3.589-8-8-8s-8,3.589-8,8S288.589,59.5,293,59.5z"
   id="path1579"
   style="fill-opacity:1;fill:url(#linearGradient2179)" />
</g>
<g
   id="g1583">
</g>
<g
   id="g1585">
</g>
<g
   id="g1587">
</g>
<g
   id="g1589">
</g>
<g
   id="g1591">
</g>
<g
   id="g1593">
</g>
<g
   id="g1595">
</g>
<g
   id="g1597">
</g>
<g
   id="g1599">
</g>
<g
   id="g1601">
</g>
<g
   id="g1603">
</g>
<g
   id="g1605">
</g>
<g
   id="g1607">
</g>
<g
   id="g1609">
</g>
<g
   id="g1611">
</g>
</svg>