<?xml version="1.0" encoding="UTF-8" standalone="no"?>
<!-- Generator: Adobe Illustrator 16.0.0, SVG Export Plug-In . SVG Version: 6.00 Build 0)  -->

<svg
   xmlns:osb="http://www.openswatchbook.org/uri/2009/osb"
   xmlns:dc="http://purl.org/dc/elements/1.1/"
   xmlns:cc="http://creativecommons.org/ns#"
   xmlns:rdf="http://www.w3.org/1999/02/22-rdf-syntax-ns#"
   xmlns:svg="http://www.w3.org/2000/svg"
   xmlns="http://www.w3.org/2000/svg"
   xmlns:xlink="http://www.w3.org/1999/xlink"
   xmlns:sodipodi="http://sodipodi.sourceforge.net/DTD/sodipodi-0.dtd"
   xmlns:inkscape="http://www.inkscape.org/namespaces/inkscape"
   version="1.1"
   id="Capa_1"
   x="0px"
   y="0px"
   width="410.546px"
   height="410.546px"
   viewBox="0 0 410.546 410.546"
   style="enable-background:new 0 0 410.546 410.546;"
   xml:space="preserve"
   sodipodi:docname="toothpaste-white.svg"
   inkscape:version="0.92.3 (2405546, 2018-03-11)"><metadata
   id="metadata903"><rdf:RDF><cc:Work
       rdf:about=""><dc:format>image/svg+xml</dc:format><dc:type
         rdf:resource="http://purl.org/dc/dcmitype/StillImage" /><dc:title></dc:title></cc:Work></rdf:RDF></metadata><defs
   id="defs901"><linearGradient
     id="linearGradient913"
     osb:paint="solid"><stop
       style="stop-color:#ffffff;stop-opacity:1;"
       offset="0"
       id="stop911" /></linearGradient><linearGradient
     id="linearGradient907"
     osb:paint="solid"><stop
       style="stop-color:#ffffff;stop-opacity:1;"
       offset="0"
       id="stop905" /></linearGradient><linearGradient
     inkscape:collect="always"
     xlink:href="#linearGradient907"
     id="linearGradient909"
     x1="81.865176"
     y1="205.2735"
     x2="328.68112"
     y2="205.2735"
     gradientUnits="userSpaceOnUse" /><linearGradient
     inkscape:collect="always"
     xlink:href="#linearGradient913"
     id="linearGradient915"
     x1="137.818"
     y1="165.8495"
     x2="272.727"
     y2="165.8495"
     gradientUnits="userSpaceOnUse" /></defs><sodipodi:namedview
   pagecolor="#ffffff"
   bordercolor="#666666"
   borderopacity="1"
   objecttolerance="10"
   gridtolerance="10"
   guidetolerance="10"
   inkscape:pageopacity="0"
   inkscape:pageshadow="2"
   inkscape:window-width="1920"
   inkscape:window-height="1017"
   id="namedview899"
   showgrid="false"
   inkscape:zoom="2.0704136"
   inkscape:cx="205.27299"
   inkscape:cy="205.27299"
   inkscape:window-x="-8"
   inkscape:window-y="-8"
   inkscape:window-maximized="1"
   inkscape:current-layer="g864" />
<g
   id="g866">
	<g
   id="g864">
		<path
   d="M324.568,5.417C321.492,1.975,317.009,0,312.266,0H98.281c-4.744,0-9.229,1.975-12.306,5.418    c-3.061,3.426-4.522,8.082-4.009,12.769l29.544,293.722c0.199,1.77,0.704,3.56,1.49,5.291c5.463,14.58,25.22,25.042,55.722,29.478    c-4.455,1.649-7.105,5.213-7.676,10.341l-3.669,39.968c-0.387,3.485,0.709,6.955,3.005,9.521c2.295,2.566,5.624,4.039,9.131,4.039    h71.517c3.507,0,6.834-1.472,9.131-4.038c2.297-2.567,3.393-6.037,3.007-9.511l-3.669-39.987    c-0.489-4.402-3.193-8.264-7.233-10.332c-0.008-0.004-0.017-0.009-0.024-0.013c0.051-0.011,0.104-0.021,0.166-0.029    c10.771-1.462,18.836-3.441,27.842-6.831c21.944-8.258,27.774-19.768,28.804-27.979L328.58,18.199    C329.094,13.503,327.632,8.845,324.568,5.417z M97.862,16.458c-0.027-0.251,0.018-0.364,0.038-0.386    c0.021-0.022,0.128-0.082,0.381-0.082h213.984c0.251,0,0.359,0.059,0.379,0.082c0.021,0.022,0.066,0.135,0.038,0.391    l-29.508,293.454c-1.271,9.333-23.04,23.22-77.813,23.22c-47.884,0-73.707-11.234-77.434-21.672l-0.311-0.752    c-0.165-0.344-0.207-0.534-0.213-0.573L97.862,16.458z"
   id="path860"
   style="fill-opacity:1;fill:url(#linearGradient909)" />
		<path
   d="M170.389,237.768h69.769c9.652,0,17.542-7.688,17.869-17.261l14.627-107.618l0.073-0.537v-0.541    c0-9.859-8.021-17.88-17.88-17.88h-99.149c-9.859,0-17.88,8.021-17.88,17.88v0.541l14.702,108.155    C152.847,230.081,160.737,237.768,170.389,237.768z M155.698,109.931h99.149c0.925,0,1.695,0.67,1.851,1.551l-14.587,107.329    l-0.072,0.537v0.541c0,1.037-0.845,1.88-1.881,1.88h-69.769c-1.037,0-1.88-0.843-1.88-1.88v-0.541l-14.663-107.865    C154.003,110.601,154.773,109.931,155.698,109.931z"
   id="path862"
   style="fill-opacity:1;fill:url(#linearGradient915)" />
	</g>
</g>
<g
   id="g868">
</g>
<g
   id="g870">
</g>
<g
   id="g872">
</g>
<g
   id="g874">
</g>
<g
   id="g876">
</g>
<g
   id="g878">
</g>
<g
   id="g880">
</g>
<g
   id="g882">
</g>
<g
   id="g884">
</g>
<g
   id="g886">
</g>
<g
   id="g888">
</g>
<g
   id="g890">
</g>
<g
   id="g892">
</g>
<g
   id="g894">
</g>
<g
   id="g896">
</g>
</svg>